<?xml version="1.0" encoding="UTF-8" standalone="no"?>
<!-- Created with Inkscape (http://www.inkscape.org/) -->

<svg
   width="210mm"
   height="210mm"
   viewBox="0 0 210 210"
   version="1.1"
   id="svg5"
   xml:space="preserve"
   inkscape:version="1.2.2 (732a01da63, 2022-12-09, custom)"
   sodipodi:docname="logo.svg"
   xmlns:inkscape="http://www.inkscape.org/namespaces/inkscape"
   xmlns:sodipodi="http://sodipodi.sourceforge.net/DTD/sodipodi-0.dtd"
   xmlns="http://www.w3.org/2000/svg"
   xmlns:svg="http://www.w3.org/2000/svg"><sodipodi:namedview
     id="namedview7"
     pagecolor="#ffffff"
     bordercolor="#000000"
     borderopacity="0.25"
     inkscape:showpageshadow="2"
     inkscape:pageopacity="0.0"
     inkscape:pagecheckerboard="0"
     inkscape:deskcolor="#d1d1d1"
     inkscape:document-units="mm"
     showgrid="false"
     inkscape:zoom="0.914906"
     inkscape:cx="392.39004"
     inkscape:cy="371.07637"
     inkscape:window-width="1712"
     inkscape:window-height="1368"
     inkscape:window-x="1724"
     inkscape:window-y="31"
     inkscape:window-maximized="0"
     inkscape:current-layer="layer1" /><defs
     id="defs2">
	
	
</defs><g
     inkscape:label="Layer 1"
     inkscape:groupmode="layer"
     id="layer1"><ellipse
       style="fill:#f1f7ed;fill-opacity:1;stroke-width:4.99999;stroke-linecap:round;stroke-linejoin:round"
       id="path6247"
       cx="105"
       cy="105"
       rx="89.428955"
       ry="90.562904" /><path
       id="path8737"
       style="fill:#3c1518;fill-opacity:1;stroke-width:4.99999;stroke-linecap:round;stroke-linejoin:round"
       d="M 90.311283 74.360836 C 90.311283 74.360836 70.740191 110.35526 83.328764 115.95365 C 99.274424 123.04494 112.60838 139.34112 116.50193 152.54831 C 118.69367 162.20566 125.72468 181.17233 127.12919 192.68695 A 89.428955 90.562904 0 0 0 158.23789 177.68838 C 158.58021 174.72409 158.56876 171.26338 157.99759 167.06681 C 154.37807 140.47304 102.04803 95.440686 102.04803 95.440686 L 90.311283 74.360836 z " /><path
       id="path8447"
       style="opacity:0.163931;fill:#000000;fill-opacity:1;stroke-width:0.484885"
       d="m 131.27161,31.081829 c -12.43527,-0.06876 -25.15228,6.661935 -34.484232,18.085201 -6.843835,-1.517048 -13.775489,-0.849601 -19.901111,2.393652 -14.370793,7.60838 -19.509175,26.855441 -13.10566,45.361056 -5.900955,2.099372 -10.591679,6.132092 -12.814205,11.720772 -4.751004,11.94887 3.582838,26.48286 18.612817,32.45642 1.86294,0.74091 3.783162,1.21028 5.721615,1.45469 -4.061513,10.74185 -1.316695,22.112 7.005774,26.72292 9.370477,5.19075 22.262302,-0.15647 28.789492,-11.94346 5.95625,-10.75029 0.10081,-25.61425 -4.01216,-29.82867 9.43387,1.63982 44.92724,-7.68834 54.75015,-32.390831 10.30195,-25.904946 1.95885,-53.54245 -18.63608,-61.731116 -3.86102,-1.535246 -7.87893,-2.278255 -11.9264,-2.300634 z" /><path
       d="M 120.81305,69.378608 C 109.94731,48.852904 87.912019,39.217074 71.59469,47.856396 55.27932,56.494301 50.860745,80.133894 61.725835,100.65839 c 10.865553,20.52468 42.248245,25.21075 49.218655,21.52133 5.63192,-2.9816 20.73392,-32.277533 9.86856,-52.801112 z"
       id="path1109"
       inkscape:connector-curvature="0"
       style="fill:#b97327;fill-opacity:1;stroke-width:0.484885" /><path
       d="m 71.871885,134.8303 c -6.52908,11.78555 -4.22869,25.54985 5.143257,30.74221 9.370487,5.19076 22.262215,-0.15685 28.789398,-11.94385 6.53133,-11.78823 -1.14025,-28.52537 -5.14277,-30.74035 -3.232513,-1.79431 -22.26068,0.15339 -28.789885,11.94199 z"
       id="path1111"
       inkscape:connector-curvature="0"
       style="fill:#1e27ae;fill-opacity:1;stroke-width:0.484885" /><path
       d="M 156.54251,91.409191 C 166.84447,65.504219 158.5011,37.866714 137.90615,29.67804 117.31402,21.490049 92.270783,35.850096 81.969424,61.753539 c -10.301101,25.903977 9.840744,58.231841 18.637436,61.730731 7.10813,2.82654 45.63535,-6.17206 55.93565,-32.075079 z"
       id="path5"
       inkscape:connector-curvature="0"
       style="fill:#d58936;fill-opacity:1;stroke-width:0.582052" /><path
       d="M 81.493876,94.125091 C 66.465329,88.149009 50.42764,92.987661 45.67495,104.93856 c -4.751009,11.94888 3.582748,26.4828 18.612742,32.45637 15.032069,5.97836 33.790055,-5.70904 35.816788,-10.81253 1.64332,-4.12253 -3.578383,-26.48154 -18.610604,-32.457309 z"
       id="path7"
       inkscape:connector-curvature="0"
       style="fill:#232ed1;fill-opacity:1;stroke-width:0.582052" /></g></svg>
